HIERARCHY
ROOT joint_Root
{
	OFFSET 0.0 0.0 0.0
	CHANNELS 6 Xposition Yposition Zposition Zrotation Xrotation Yrotation 
	JOINT Hips
	{
		OFFSET 4.5925 91.4895 -427.239
		CHANNELS 6 Xposition Yposition Zposition Zrotation Xrotation Yrotation 
		JOINT Spine
		{
			OFFSET 15.7357 0.0 0.0
			CHANNELS 6 Xposition Yposition Zposition Zrotation Xrotation Yrotation 
			JOINT Chest
			{
				OFFSET 8.98455 -0.406207 0.0
				CHANNELS 6 Xposition Yposition Zposition Zrotation Xrotation Yrotation 
				JOINT Neck
				{
					OFFSET 16.3773 0.0 0.0
					CHANNELS 6 Xposition Yposition Zposition Zrotation Xrotation Yrotation 
					JOINT Head
					{
						OFFSET 6.45672 0.0 0.0
						CHANNELS 6 Xposition Yposition Zposition Zrotation Xrotation Yrotation 
						End Site
						{
							OFFSET 0.0 0.0 0.0
						}
					}
				}
				JOINT Shoulder_L
				{
					OFFSET 12.9942 -0.242716 4.98039
					CHANNELS 6 Xposition Yposition Zposition Zrotation Xrotation Yrotation 
					JOINT UpperArm_L
					{
						OFFSET 5.34809 0.0 0.0
						CHANNELS 6 Xposition Yposition Zposition Zrotation Xrotation Yrotation 
						JOINT LowerArm_L
						{
							OFFSET 24.3286 1.87007e-05 0.0
							CHANNELS 6 Xposition Yposition Zposition Zrotation Xrotation Yrotation 
							JOINT Hand_L
							{
								OFFSET 22.2916 0.0 0.0
								CHANNELS 6 Xposition Yposition Zposition Zrotation Xrotation Yrotation 
								End Site
								{
									OFFSET 0.0 0.0 0.0
								}
							}
						}
					}
				}
				JOINT Shoulder_R
				{
					OFFSET 12.9945 -0.242716 -4.98039
					CHANNELS 6 Xposition Yposition Zposition Zrotation Xrotation Yrotation 
					JOINT UpperArm_R
					{
						OFFSET -5.34813 0.0 0.0
						CHANNELS 6 Xposition Yposition Zposition Zrotation Xrotation Yrotation 
						JOINT LowerArm_R
						{
							OFFSET -24.3289 0.000322201 0.0
							CHANNELS 6 Xposition Yposition Zposition Zrotation Xrotation Yrotation 
							JOINT Hand_R
							{
								OFFSET -22.2915 -0.000108084 0.0
								CHANNELS 6 Xposition Yposition Zposition Zrotation Xrotation Yrotation 
								End Site
								{
									OFFSET 0.0 0.0 0.0
								}
							}
						}
					}
				}
			}
		}
		JOINT UpperLeg_L
		{
			OFFSET -2.19248 -6.46944 0.0
			CHANNELS 6 Xposition Yposition Zposition Zrotation Xrotation Yrotation 
			JOINT LowerLeg_L
			{
				OFFSET 39.0811 0.0 -1.23785e-05
				CHANNELS 6 Xposition Yposition Zposition Zrotation Xrotation Yrotation 
				JOINT Foot_L
				{
					OFFSET 40.9854 0.0 -1.26872e-05
					CHANNELS 6 Xposition Yposition Zposition Zrotation Xrotation Yrotation 
					JOINT Toes_L
					{
						OFFSET 11.7543 0.0 0.0
						CHANNELS 6 Xposition Yposition Zposition Zrotation Xrotation Yrotation 
						End Site
						{
							OFFSET 0.0 0.0 0.0
						}
					}
				}
			}
		}
		JOINT UpperLeg_R
		{
			OFFSET -2.19251 6.46944 0.0
			CHANNELS 6 Xposition Yposition Zposition Zrotation Xrotation Yrotation 
			JOINT LowerLeg_R
			{
				OFFSET -39.0811 -0.00228153 -0.0401928
				CHANNELS 6 Xposition Yposition Zposition Zrotation Xrotation Yrotation 
				JOINT Foot_R
				{
					OFFSET -40.9854 0.0 0.0
					CHANNELS 6 Xposition Yposition Zposition Zrotation Xrotation Yrotation 
					JOINT Toes_R
					{
						OFFSET -11.7543 0.0 0.0
						CHANNELS 6 Xposition Yposition Zposition Zrotation Xrotation Yrotation 
						End Site
						{
							OFFSET 0.0 0.0 0.0
						}
					}
				}
			}
		}
	}
}
MOTION
Frames:	8
Frame Time:	0.0333333
0.000000 0.000000 0.000000 0.000000 0.000000 -0.000000 0.109233 91.719700 2.292970 88.744200 -4.545330 0.315998 15.735700 0.000005 -0.000001 79.813500 88.232100 -79.674700 8.984550 -0.406207 -0.000000 -4.285240 -0.639449 0.253951 16.377300 -0.000001 -0.000001 2.844320 -3.296340 2.155070 6.456720 -0.000001 -0.000000 0.308224 -3.288360 1.652780 12.994200 -0.242716 4.980390 -84.314900 -11.839900 -64.117700 5.348090 -0.000007 -0.000001 -76.428500 -50.126700 -119.293000 24.328600 0.000019 0.000005 20.318200 17.015500 -51.680100 22.291600 -0.000001 0.000005 24.014100 5.158750 3.733040 12.994500 -0.242716 -4.980390 92.931200 -8.216630 -70.288400 -5.348130 -0.000001 -0.000004 -74.302800 -47.499000 -114.432000 -24.328900 0.000322 -0.000009 4.997650 3.647020 -53.974500 -22.291500 -0.000108 -0.000004 26.869200 5.441940 -4.353950 -2.192480 -6.469440 -0.000000 -175.933000 -13.620900 -4.363470 39.081100 -0.000007 -0.000012 -0.163963 0.366162 24.122500 40.985400 -0.000006 -0.000013 -0.085344 4.949770 -69.245600 11.754300 -0.000000 0.000003 -0.000195 -0.001815 -16.646100 -2.192510 6.469440 -0.000001 176.459000 22.695900 176.525000 -39.081100 -0.002282 -0.040193 0.005947 -0.006190 23.030000 -40.985400 0.000008 0.000006 7.809400 19.821100 -70.901300 -11.754300 -0.000006 -0.000006 -0.001239 -0.018748 -17.335500
0.000000 0.000000 0.000000 0.000000 0.000000 -0.000000 0.105477 91.726000 2.279550 88.770200 -4.459250 0.231507 15.735700 0.000005 -0.000001 80.304300 88.206400 -80.171000 8.984550 -0.406207 -0.000000 -4.229520 -0.617623 0.243868 16.377300 -0.000001 -0.000001 2.820960 -3.360170 2.167950 6.456720 -0.000001 -0.000000 0.120912 -3.359240 1.700920 12.994200 -0.242716 4.980390 -84.369800 -11.676400 -64.028600 5.348090 -0.000007 -0.000001 -76.175700 -49.788200 -118.649000 24.328600 0.000019 0.000005 20.181000 16.576400 -52.181300 22.291600 -0.000001 0.000005 24.142800 5.163570 3.616720 12.994500 -0.242716 -4.980390 92.905300 -8.104160 -70.200800 -5.348130 -0.000001 -0.000004 -73.272600 -47.707300 -113.809000 -24.328900 0.000322 -0.000009 4.773660 3.476080 -54.025700 -22.291500 -0.000108 -0.000004 26.638800 5.441740 -4.346980 -2.192480 -6.469440 -0.000000 -175.954000 -13.758000 -4.458540 39.081100 -0.000007 -0.000012 -0.164297 0.367498 24.088100 40.985400 -0.000006 -0.000013 -0.051864 5.131380 -69.202500 11.754300 -0.000000 0.000003 -0.000185 -0.001735 -16.643100 -2.192510 6.469440 -0.000001 176.466000 22.810600 176.468000 -39.081100 -0.002282 -0.040193 0.005543 -0.005255 22.969100 -40.985400 0.000008 0.000006 7.771910 19.849500 -70.889700 -11.754300 -0.000006 -0.000006 -0.001234 -0.018683 -17.332900
0.000000 0.000000 0.000000 0.000000 0.000000 -0.000000 0.102725 91.733200 2.276380 88.768000 -4.361320 0.174530 15.735700 0.000005 -0.000001 81.019100 88.154100 -80.871600 8.984550 -0.406207 -0.000000 -4.118750 -0.591199 0.273856 16.377300 -0.000001 -0.000001 2.731370 -3.388220 2.186860 6.456720 -0.000001 -0.000000 -0.086454 -3.388260 1.702290 12.994200 -0.242716 4.980390 -84.482900 -11.422900 -64.001000 5.348090 -0.000007 -0.000001 -75.572600 -49.447600 -117.351000 24.328600 0.000019 0.000005 19.964800 15.722200 -53.279800 22.291600 -0.000001 0.000005 24.226900 5.168470 3.498110 12.994500 -0.242716 -4.980390 92.859300 -7.958350 -70.163400 -5.348130 -0.000001 -0.000004 -71.603100 -48.138000 -112.519000 -24.328900 0.000322 -0.000009 4.502740 3.227860 -54.442900 -22.291500 -0.000108 -0.000004 26.419400 5.441690 -4.345530 -2.192480 -6.469440 -0.000000 -175.941000 -13.814300 -4.510940 39.081100 -0.000007 -0.000012 -0.164498 0.368577 24.051700 40.985400 -0.000006 -0.000013 -0.025035 5.290960 -69.172900 11.754300 -0.000000 0.000003 -0.000198 -0.001836 -16.646800 -2.192510 6.469440 -0.000001 176.495000 22.855600 176.439000 -39.081100 -0.002282 -0.040193 0.005423 -0.004982 22.927900 -40.985400 0.000008 0.000006 7.718550 19.805300 -70.832500 -11.754300 -0.000006 -0.000006 -0.001240 -0.018766 -17.336200
0.000000 0.000000 0.000000 0.000000 0.000000 -0.000000 0.108227 91.732800 2.289900 88.764500 -4.279120 0.197284 15.735700 0.000005 -0.000001 82.011900 88.076100 -81.842400 8.984550 -0.406207 -0.000000 -3.954840 -0.551698 0.320095 16.377300 -0.000001 -0.000001 2.579250 -3.408730 2.209920 6.456720 -0.000001 -0.000000 -0.293804 -3.355360 1.692440 12.994200 -0.242716 4.980390 -84.625000 -11.108200 -63.970900 5.348090 -0.000007 -0.000001 -74.458900 -48.984500 -114.919000 24.328600 0.000019 0.000005 20.102300 14.465700 -55.686200 22.291600 -0.000001 0.000005 24.017900 5.167960 3.509930 12.994500 -0.242716 -4.980390 92.791700 -7.747110 -70.112900 -5.348130 -0.000001 -0.000004 -69.304000 -48.503900 -110.278000 -24.328900 0.000322 -0.000009 4.256660 2.920970 -55.611400 -22.291500 -0.000108 -0.000004 26.107100 5.441310 -4.331940 -2.192480 -6.469440 -0.000000 -175.929000 -13.846500 -4.489380 39.081100 -0.000007 -0.000012 -0.162187 0.363323 24.056100 40.985400 -0.000006 -0.000013 0.002532 5.385010 -69.178900 11.754300 -0.000000 0.000003 -0.000176 -0.001666 -16.640600 -2.192510 6.469440 -0.000001 176.472000 22.975300 176.489000 -39.081100 -0.002282 -0.040193 0.005792 -0.005857 22.919600 -40.985400 0.000008 0.000006 7.777950 19.850400 -70.865600 -11.754300 -0.000006 -0.000006 -0.001235 -0.018695 -17.333300
0.000000 0.000000 0.000000 0.000000 0.000000 -0.000000 0.109497 91.732400 2.304010 88.777700 -4.218730 0.198962 15.735700 0.000005 -0.000001 83.266700 88.008600 -83.087500 8.984550 -0.406207 -0.000000 -3.810080 -0.484774 0.342292 16.377300 -0.000001 -0.000001 2.340610 -3.435890 2.251750 6.456720 -0.000001 -0.000000 -0.406575 -3.319790 1.718370 12.994200 -0.242716 4.980390 -84.815100 -10.746400 -64.050200 5.348090 -0.000007 -0.000001 -72.715800 -48.388900 -111.077000 24.328600 0.000019 0.000005 20.217100 12.449700 -59.657400 22.291600 -0.000001 0.000005 23.125700 5.177980 3.264300 12.994500 -0.242716 -4.980390 92.685400 -7.410590 -70.015800 -5.348130 -0.000001 -0.000004 -66.393300 -48.482100 -106.931000 -24.328900 0.000322 -0.000009 3.982030 2.508470 -57.852000 -22.291500 -0.000108 -0.000004 25.733800 5.439250 -4.260470 -2.192480 -6.469440 -0.000000 -175.935000 -13.849600 -4.473340 39.081100 -0.000007 -0.000012 -0.161766 0.362671 24.039000 40.985400 -0.000006 -0.000013 0.026897 5.481470 -69.180900 11.754300 -0.000000 0.000003 -0.000175 -0.001657 -16.640300 -2.192510 6.469440 -0.000001 176.451000 23.046100 176.505000 -39.081100 -0.002282 -0.040193 0.006325 -0.007111 22.934000 -40.985400 0.000008 0.000006 7.829470 19.830900 -70.895700 -11.754300 -0.000006 -0.000006 -0.001260 -0.019028 -17.346900
0.000000 0.000000 0.000000 0.000000 0.000000 -0.000000 0.121180 91.717900 2.313210 88.772400 -4.129320 0.223981 15.735700 0.000005 -0.000001 84.260600 87.941200 -84.066900 8.984550 -0.406207 -0.000000 -3.668320 -0.430864 0.373804 16.377300 -0.000001 -0.000001 2.024680 -3.459680 2.270340 6.456720 -0.000001 -0.000000 -0.466614 -3.299500 1.785800 12.994200 -0.242716 4.980390 -85.120200 -10.236300 -64.339200 5.348090 -0.000007 -0.000001 -69.786000 -47.803800 -105.616000 24.328600 0.000019 0.000005 20.795500 10.216200 -64.966900 22.291600 -0.000001 0.000005 22.582700 5.189750 2.974980 12.994500 -0.242716 -4.980390 92.535700 -6.979560 -69.976200 -5.348130 -0.000001 -0.000004 -62.861300 -48.057200 -102.352000 -24.328900 0.000322 -0.000009 4.201890 2.303970 -61.316900 -22.291500 -0.000108 -0.000004 25.377000 5.436250 -4.154670 -2.192480 -6.469440 -0.000000 -175.913000 -13.913000 -4.512960 39.081100 -0.000007 -0.000012 -0.162502 0.362395 24.152200 40.985400 -0.000006 -0.000013 0.063987 5.604160 -69.230800 11.754300 -0.000000 0.000003 -0.000189 -0.001762 -16.644100 -2.192510 6.469440 -0.000001 176.434000 23.095400 176.544000 -39.081100 -0.002282 -0.040193 0.005798 -0.005860 22.953200 -40.985400 0.000008 0.000006 7.800660 19.823600 -70.958300 -11.754300 -0.000006 -0.000006 -0.001015 -0.015623 -17.208500
0.000000 0.000000 0.000000 0.000000 0.000000 -0.000000 0.128400 91.701800 2.328200 88.764400 -4.076010 0.284422 15.735700 0.000005 -0.000001 84.338900 87.847400 -84.114300 8.984550 -0.406207 -0.000000 -3.480940 -0.446496 0.435768 16.377300 -0.000001 -0.000001 1.616920 -3.497590 2.277240 6.456720 -0.000001 -0.000000 -0.577819 -3.144090 1.702560 12.994200 -0.242716 4.980390 -85.578700 -9.364810 -64.584400 5.348090 -0.000007 -0.000001 -65.742100 -46.897600 -98.837400 24.328600 0.000019 0.000005 21.593500 7.774630 -71.131500 22.291600 -0.000001 0.000005 22.122700 5.183920 3.119210 12.994500 -0.242716 -4.980390 92.332500 -6.381880 -69.874500 -5.348130 -0.000001 -0.000004 -59.062000 -46.698400 -97.177100 -24.328900 0.000322 -0.000009 4.668850 2.121340 -65.624600 -22.291500 -0.000108 -0.000004 25.275700 5.433600 -4.063260 -2.192480 -6.469440 -0.000000 -175.890000 -13.939600 -4.496020 39.081100 -0.000007 -0.000012 -0.162290 0.360119 24.259300 40.985400 -0.000006 -0.000013 0.095395 5.676760 -69.295700 11.754300 -0.000000 0.000003 -0.000213 -0.001949 -16.651000 -2.192510 6.469440 -0.000001 176.391000 23.184800 176.599000 -39.081100 -0.002282 -0.040193 0.003990 -0.001588 23.025500 -40.985400 0.000008 0.000006 7.763600 19.841300 -71.000000 -11.754300 -0.000006 -0.000006 -0.001090 -0.016671 -17.251100
0.000000 0.000000 0.000000 0.000000 0.000000 -0.000000 0.144420 91.678600 2.356970 88.749100 -4.013370 0.364562 15.735700 0.000005 -0.000001 84.778500 87.729300 -84.536500 8.984550 -0.406207 -0.000000 -3.242590 -0.436333 0.471719 16.377300 -0.000001 -0.000001 0.959141 -3.551180 2.313080 6.456720 -0.000001 -0.000000 -0.569324 -3.097820 1.692560 12.994200 -0.242716 4.980390 -86.129500 -8.325150 -64.955200 5.348090 -0.000007 -0.000001 -60.996800 -45.565000 -91.150800 24.328600 0.000019 0.000005 21.965500 5.035200 -77.723400 22.291600 -0.000001 0.000005 21.071200 5.179970 3.217030 12.994500 -0.242716 -4.980390 92.032100 -5.487110 -69.641900 -5.348130 -0.000001 -0.000004 -54.895900 -44.589600 -91.345400 -24.328900 0.000322 -0.000009 5.233580 1.846800 -70.619200 -22.291500 -0.000108 -0.000004 25.122900 5.421360 -3.644610 -2.192480 -6.469440 -0.000000 -175.833000 -14.060800 -4.471370 39.081100 -0.000007 -0.000012 -0.165734 0.365170 24.411300 40.985400 -0.000006 -0.000013 0.146272 5.849060 -69.388200 11.754300 -0.000000 0.000003 -0.000200 -0.001855 -16.647500 -2.192510 6.469440 -0.000001 176.309000 23.291400 176.683000 -39.081100 -0.002282 -0.040193 -0.005096 0.019710 23.111300 -40.985400 0.000008 0.000006 7.626120 19.947100 -71.019900 -11.754300 -0.000006 -0.000006 -0.000932 -0.014431 -17.160100
